<svg xmlns="http://www.w3.org/2000/svg" xmlns:xlink="http://www.w3.org/1999/xlink" width="500" zoomAndPan="magnify" viewBox="0 0 375 374.999991" height="500" preserveAspectRatio="xMidYMid meet" version="1.0"><defs><clipPath id="88f75510df"><path d="M 112.5 144 L 262.5 144 L 262.5 210 L 112.5 210 Z M 112.5 144 " clip-rule="nonzero"/></clipPath><clipPath id="d70b48fee4"><path d="M 112.5 144 L 262.5 144 L 262.5 185 L 112.5 185 Z M 112.5 144 " clip-rule="nonzero"/></clipPath></defs><path fill="#d05a49" d="M 259.316406 230.125 C 259.300781 230.355469 259.210938 230.554688 259.050781 230.722656 C 258.886719 230.886719 258.6875 230.980469 258.457031 230.996094 L 252.929688 230.996094 C 252.214844 228.160156 253.160156 221.902344 253.207031 221.578125 C 251.671875 226.128906 251.835938 229.429688 252.03125 230.996094 L 251.617188 230.996094 C 251.386719 230.976562 251.1875 230.886719 251.027344 230.722656 C 250.863281 230.554688 250.777344 230.359375 250.761719 230.128906 C 250.699219 229.664062 250.667969 229.195312 250.667969 228.726562 C 250.671875 227.902344 250.769531 227.089844 250.96875 226.289062 C 251.199219 225.34375 251.445312 224.402344 251.636719 223.449219 L 253.316406 214.925781 L 257.34375 214.925781 L 258.332031 221.820312 C 258.546875 223.320312 258.773438 224.816406 259.125 226.273438 C 259.429688 227.539062 259.496094 228.820312 259.328125 230.109375 " fill-opacity="1" fill-rule="nonzero"/><path fill="#d05a49" d="M 255.039062 212.726562 C 254.839844 212.726562 254.671875 212.660156 254.53125 212.519531 C 254.394531 212.378906 254.324219 212.210938 254.320312 212.015625 L 254.320312 183.785156 C 254.308594 183.578125 254.371094 183.398438 254.515625 183.246094 C 254.65625 183.097656 254.828125 183.019531 255.035156 183.019531 C 255.242188 183.019531 255.417969 183.097656 255.558594 183.246094 C 255.699219 183.398438 255.765625 183.578125 255.75 183.785156 L 255.75 212.015625 C 255.75 212.210938 255.679688 212.378906 255.542969 212.519531 C 255.402344 212.65625 255.234375 212.726562 255.039062 212.726562 " fill-opacity="1" fill-rule="nonzero"/><path fill="#d05a49" d="M 257.746094 213.609375 C 257.746094 213.964844 257.675781 214.3125 257.539062 214.640625 C 257.402344 214.972656 257.207031 215.261719 256.953125 215.515625 C 256.703125 215.769531 256.410156 215.964844 256.078125 216.101562 C 255.75 216.238281 255.40625 216.304688 255.046875 216.304688 C 254.6875 216.304688 254.34375 216.238281 254.015625 216.101562 C 253.683594 215.964844 253.394531 215.769531 253.140625 215.515625 C 252.886719 215.261719 252.691406 214.972656 252.554688 214.640625 C 252.417969 214.3125 252.351562 213.964844 252.351562 213.609375 C 252.351562 213.25 252.417969 212.90625 252.554688 212.578125 C 252.691406 212.246094 252.886719 211.953125 253.140625 211.703125 C 253.394531 211.449219 253.683594 211.253906 254.015625 211.117188 C 254.34375 210.980469 254.6875 210.910156 255.046875 210.910156 C 255.40625 210.910156 255.75 210.980469 256.078125 211.117188 C 256.410156 211.253906 256.703125 211.449219 256.953125 211.703125 C 257.207031 211.953125 257.402344 212.246094 257.539062 212.578125 C 257.675781 212.90625 257.746094 213.25 257.746094 213.609375 " fill-opacity="1" fill-rule="nonzero"/><path fill="#d05a49" d="M 252.960938 213.324219 C 252.960938 212.851562 253.078125 212.410156 253.308594 212 C 253.539062 211.589844 253.855469 211.261719 254.257812 211.015625 C 253.894531 211.136719 253.574219 211.324219 253.289062 211.578125 C 253.007812 211.835938 252.789062 212.136719 252.632812 212.488281 C 252.480469 212.835938 252.402344 213.203125 252.402344 213.582031 C 252.40625 213.964844 252.484375 214.332031 252.636719 214.679688 C 252.792969 215.027344 253.011719 215.328125 253.296875 215.585938 C 253.582031 215.839844 253.902344 216.027344 254.265625 216.144531 C 254.628906 216.261719 255 216.300781 255.382812 216.261719 C 255.761719 216.222656 256.117188 216.105469 256.445312 215.917969 C 256.246094 215.976562 256.039062 216.015625 255.828125 216.027344 C 255.617188 216.042969 255.40625 216.03125 255.199219 215.996094 C 254.988281 215.957031 254.789062 215.898438 254.59375 215.816406 C 254.398438 215.730469 254.21875 215.628906 254.046875 215.5 C 253.878906 215.375 253.726562 215.230469 253.589844 215.070312 C 253.453125 214.90625 253.339844 214.730469 253.246094 214.542969 C 253.152344 214.351562 253.078125 214.15625 253.03125 213.949219 C 252.984375 213.746094 252.960938 213.535156 252.960938 213.324219 " fill-opacity="1" fill-rule="nonzero"/><g clip-path="url(#88f75510df)"><path fill="#302f2b" d="M 261.683594 181.273438 C 261.921875 181.390625 262.109375 181.566406 262.246094 181.796875 C 262.382812 182.023438 262.445312 182.273438 262.4375 182.539062 C 262.429688 182.808594 262.351562 183.050781 262.199219 183.269531 C 262.050781 183.492188 261.851562 183.65625 261.605469 183.761719 L 231.84375 196.5625 L 202.105469 209.351562 C 192.378906 208.359375 182.652344 208.359375 172.925781 209.351562 L 143.191406 196.5625 L 113.421875 183.761719 C 113.175781 183.65625 112.980469 183.492188 112.828125 183.269531 C 112.679688 183.050781 112.601562 182.808594 112.59375 182.539062 C 112.585938 182.273438 112.648438 182.023438 112.785156 181.796875 C 112.921875 181.566406 113.109375 181.390625 113.347656 181.273438 L 186.898438 144.179688 C 187.308594 143.972656 187.722656 143.972656 188.136719 144.179688 Z M 261.683594 181.273438 " fill-opacity="1" fill-rule="nonzero"/></g><g clip-path="url(#d70b48fee4)"><path fill="#302f2b" d="M 186.898438 146.246094 C 187.308594 146.039062 187.722656 146.039062 188.136719 146.246094 L 259.34375 184.726562 C 259.453125 184.777344 261.882812 183.460938 261.96875 183.527344 C 262.054688 183.453125 262.128906 183.367188 262.191406 183.273438 C 262.257812 183.183594 262.308594 183.082031 262.347656 182.976562 C 262.386719 182.871094 262.414062 182.761719 262.425781 182.652344 C 262.4375 182.539062 262.4375 182.429688 262.421875 182.316406 C 262.40625 182.203125 262.378906 182.097656 262.339844 181.992188 C 262.296875 181.886719 262.242188 181.789062 262.175781 181.699219 C 262.113281 181.605469 262.035156 181.523438 261.949219 181.449219 C 261.863281 181.378906 261.769531 181.316406 261.671875 181.265625 L 188.136719 144.179688 C 187.722656 143.972656 187.308594 143.972656 186.898438 144.179688 L 113.347656 181.273438 C 113.246094 181.324219 113.152344 181.382812 113.066406 181.457031 C 112.980469 181.53125 112.90625 181.613281 112.839844 181.703125 C 112.773438 181.792969 112.722656 181.894531 112.679688 181.996094 C 112.636719 182.101562 112.609375 182.210938 112.59375 182.324219 C 112.582031 182.433594 112.578125 182.546875 112.59375 182.65625 C 112.605469 182.769531 112.632812 182.878906 112.671875 182.984375 C 112.710938 183.089844 112.761719 183.1875 112.824219 183.28125 C 112.890625 183.375 112.964844 183.457031 113.046875 183.53125 C 113.132812 183.460938 115.542969 184.777344 115.652344 184.730469 Z M 186.898438 146.246094 " fill-opacity="1" fill-rule="nonzero"/></g><path fill="#302f2b" d="M 231.925781 191.152344 L 231.925781 215.746094 C 231.925781 217.914062 230.082031 219.472656 228.25 218.859375 C 219.769531 216.011719 211.085938 214.074219 202.199219 213.042969 C 192.472656 211.914062 182.746094 211.914062 173.019531 213.042969 C 164.125 214.070312 155.433594 216.011719 146.945312 218.859375 C 145.109375 219.472656 143.273438 217.914062 143.273438 215.746094 L 143.273438 191.152344 C 143.273438 189.726562 144.097656 188.457031 145.296875 188.046875 C 152.09375 185.65625 159.039062 183.851562 166.140625 182.640625 C 173.242188 181.429688 180.394531 180.820312 187.597656 180.820312 C 194.800781 180.820312 201.949219 181.429688 209.050781 182.640625 C 216.152344 183.851562 223.097656 185.65625 229.894531 188.046875 C 231.09375 188.464844 231.921875 189.726562 231.921875 191.152344 " fill-opacity="1" fill-rule="nonzero"/><path fill="#302f2b" d="M 147.734375 192.609375 C 154.496094 190.230469 161.40625 188.4375 168.472656 187.222656 C 175.535156 186.011719 182.652344 185.398438 189.820312 185.386719 C 196.984375 185.375 204.101562 185.964844 211.171875 187.152344 C 218.238281 188.34375 225.15625 190.117188 231.925781 192.472656 L 231.925781 191.160156 C 231.925781 189.734375 231.101562 188.460938 229.898438 188.050781 C 223.101562 185.660156 216.15625 183.859375 209.054688 182.644531 C 201.953125 181.433594 194.800781 180.828125 187.597656 180.828125 C 180.394531 180.828125 173.242188 181.433594 166.144531 182.644531 C 159.042969 183.859375 152.09375 185.660156 145.300781 188.050781 C 144.101562 188.472656 143.273438 189.734375 143.273438 191.160156 L 143.273438 215.746094 C 143.273438 217.417969 144.367188 218.722656 145.707031 218.953125 L 145.707031 195.710938 C 145.707031 194.285156 146.53125 193.015625 147.734375 192.605469 " fill-opacity="1" fill-rule="nonzero"/></svg>