<svg xmlns="http://www.w3.org/2000/svg" xmlns:xlink="http://www.w3.org/1999/xlink" width="500" zoomAndPan="magnify" viewBox="0 0 375 374.999991" height="500" preserveAspectRatio="xMidYMid meet" version="1.0"><defs><clipPath id="29a47c4a55"><path d="M 114.886719 112.5 L 260.585938 112.5 L 260.585938 262.5 L 114.886719 262.5 Z M 114.886719 112.5 " clip-rule="nonzero"/></clipPath></defs><g clip-path="url(#29a47c4a55)"><path fill="#040606" d="M 255.871094 192.1875 L 246.472656 192.1875 L 246.472656 189.84375 C 246.472656 187.964844 245.738281 186.195312 244.417969 184.875 C 242.429688 182.890625 239.359375 182.398438 236.808594 183.359375 C 236.5 182.171875 235.898438 181.082031 235.019531 180.1875 C 233.03125 178.203125 229.957031 177.710938 227.410156 178.671875 C 227.101562 177.484375 226.5 176.394531 225.621094 175.5 C 222.949219 172.839844 218.304688 172.839844 215.632812 175.5 C 214.753906 176.394531 214.152344 177.484375 213.84375 178.671875 C 211.292969 177.710938 208.222656 178.203125 206.234375 180.1875 C 204.914062 181.507812 204.179688 183.277344 204.179688 185.15625 L 204.179688 192.1875 L 171.28125 192.1875 L 171.28125 185.15625 C 171.28125 183.277344 170.546875 181.507812 169.210938 180.1875 C 167.238281 178.203125 164.167969 177.710938 161.617188 178.671875 C 161.308594 177.484375 160.707031 176.394531 159.8125 175.5 C 157.15625 172.839844 152.511719 172.839844 149.855469 175.5 C 148.960938 176.394531 148.359375 177.484375 148.039062 178.671875 C 145.5 177.710938 142.429688 178.203125 140.453125 180.1875 C 139.558594 181.082031 138.960938 182.171875 138.640625 183.359375 C 136.101562 182.398438 133.03125 182.890625 131.054688 184.875 C 129.722656 186.195312 128.988281 187.964844 128.988281 189.84375 L 128.988281 192.1875 L 119.585938 192.1875 L 119.585938 140.625 L 255.871094 140.625 Z M 241.773438 219.886719 L 234.726562 238.636719 L 234.726562 243.75 L 211.226562 243.75 L 211.226562 238.089844 L 210.535156 237.398438 C 207.460938 234.335938 199.480469 224.851562 199.480469 218.023438 L 199.480469 206.25 C 199.480469 205.625 199.71875 205.039062 200.171875 204.597656 C 201.054688 203.707031 202.601562 203.707031 203.484375 204.597656 C 203.9375 205.039062 204.179688 205.625 204.179688 206.25 L 204.179688 215.625 L 208.878906 215.625 L 208.878906 185.15625 C 208.878906 184.53125 209.117188 183.945312 209.570312 183.492188 C 210.453125 182.613281 212.003906 182.613281 212.882812 183.492188 C 213.335938 183.945312 213.578125 184.53125 213.578125 185.15625 L 213.578125 203.90625 L 218.277344 203.90625 L 218.277344 180.46875 C 218.277344 179.84375 218.515625 179.257812 218.972656 178.804688 C 219.851562 177.925781 221.402344 177.925781 222.28125 178.804688 C 222.734375 179.257812 222.976562 179.84375 222.976562 180.46875 L 222.976562 203.90625 L 227.675781 203.90625 L 227.675781 185.15625 C 227.675781 184.53125 227.917969 183.945312 228.371094 183.492188 C 229.25 182.613281 230.800781 182.613281 231.679688 183.492188 C 232.136719 183.945312 232.375 184.53125 232.375 185.15625 L 232.375 203.90625 L 237.074219 203.90625 L 237.074219 189.84375 C 237.074219 189.21875 237.316406 188.632812 237.769531 188.179688 C 238.648438 187.300781 240.199219 187.300781 241.082031 188.179688 C 241.535156 188.632812 241.773438 189.21875 241.773438 189.84375 Z M 171.964844 204.597656 C 172.855469 203.707031 174.40625 203.707031 175.289062 204.597656 C 175.742188 205.039062 175.980469 205.625 175.980469 206.25 L 175.980469 218.023438 C 175.980469 224.851562 167.996094 234.335938 164.914062 237.398438 L 164.234375 238.089844 L 164.234375 243.75 L 140.734375 243.75 L 140.734375 238.636719 L 133.6875 219.886719 L 133.6875 189.84375 C 133.6875 189.21875 133.925781 188.632812 134.378906 188.191406 C 135.261719 187.300781 136.808594 187.300781 137.691406 188.191406 C 138.144531 188.632812 138.386719 189.21875 138.386719 189.84375 L 138.386719 203.90625 L 143.085938 203.90625 L 143.085938 185.15625 C 143.085938 184.53125 143.324219 183.945312 143.78125 183.503906 C 144.660156 182.613281 146.210938 182.613281 147.089844 183.503906 C 147.542969 183.945312 147.785156 184.53125 147.785156 185.15625 L 147.785156 203.90625 L 152.484375 203.90625 L 152.484375 180.46875 C 152.484375 179.84375 152.722656 179.257812 153.179688 178.816406 C 154.058594 177.925781 155.609375 177.925781 156.488281 178.816406 C 156.941406 179.257812 157.183594 179.84375 157.183594 180.46875 L 157.183594 203.90625 L 161.882812 203.90625 L 161.882812 185.15625 C 161.882812 184.53125 162.125 183.945312 162.578125 183.503906 C 163.457031 182.613281 165.007812 182.613281 165.886719 183.503906 C 166.34375 183.945312 166.582031 184.53125 166.582031 185.15625 L 166.582031 215.625 L 171.28125 215.625 L 171.28125 206.25 C 171.28125 205.625 171.523438 205.039062 171.964844 204.597656 Z M 259.195312 137.308594 C 258.300781 136.429688 257.128906 135.9375 255.871094 135.9375 L 190.078125 135.9375 L 190.078125 133.59375 C 190.078125 131.714844 189.34375 129.945312 188.011719 128.625 C 186.6875 127.292969 184.914062 126.5625 183.03125 126.5625 L 168.933594 126.5625 C 168.304688 126.5625 167.71875 126.324219 167.277344 125.871094 C 166.824219 125.429688 166.582031 124.84375 166.582031 124.21875 C 166.582031 123.59375 166.824219 123.007812 167.277344 122.566406 C 167.71875 122.113281 168.304688 121.875 168.933594 121.875 L 197.128906 121.875 C 199.011719 121.875 200.789062 121.140625 202.121094 119.8125 C 203.445312 118.492188 204.179688 116.722656 204.179688 114.84375 L 204.179688 112.5 L 199.480469 112.5 L 199.480469 114.84375 C 199.480469 115.46875 199.238281 116.054688 198.785156 116.507812 C 198.34375 116.949219 197.757812 117.1875 197.128906 117.1875 L 168.933594 117.1875 C 167.050781 117.1875 165.273438 117.917969 163.953125 119.25 C 162.617188 120.570312 161.882812 122.339844 161.882812 124.21875 C 161.882812 126.097656 162.617188 127.867188 163.953125 129.1875 C 165.273438 130.515625 167.050781 131.25 168.933594 131.25 L 183.03125 131.25 C 183.660156 131.25 184.246094 131.488281 184.6875 131.941406 C 185.140625 132.382812 185.378906 132.96875 185.378906 133.59375 L 185.378906 135.9375 L 119.585938 135.9375 C 118.332031 135.9375 117.15625 136.429688 116.261719 137.308594 C 115.382812 138.203125 114.886719 139.375 114.886719 140.625 L 114.886719 192.1875 C 114.886719 193.4375 115.382812 194.609375 116.261719 195.503906 C 117.144531 196.382812 118.332031 196.875 119.585938 196.875 L 128.988281 196.875 L 128.988281 220.738281 L 136.035156 239.488281 L 136.035156 244.402344 C 135.6875 244.601562 135.355469 244.84375 135.0625 245.136719 C 134.179688 246.015625 133.6875 247.1875 133.6875 248.4375 L 133.6875 262.5 L 138.386719 262.5 L 138.386719 248.4375 L 166.582031 248.4375 L 166.582031 262.5 L 171.28125 262.5 L 171.28125 248.4375 C 171.28125 247.1875 170.789062 246.015625 169.90625 245.121094 C 169.613281 244.828125 169.28125 244.601562 168.933594 244.390625 L 168.933594 240.007812 C 171.5625 237.210938 180.679688 226.917969 180.679688 218.023438 L 180.679688 206.25 C 180.679688 204.371094 179.945312 202.601562 178.613281 201.269531 C 176.703125 199.363281 173.765625 198.859375 171.28125 199.699219 L 171.28125 196.875 L 204.179688 196.875 L 204.179688 199.699219 C 201.695312 198.859375 198.757812 199.363281 196.847656 201.28125 C 195.515625 202.601562 194.78125 204.371094 194.78125 206.25 L 194.78125 218.023438 C 194.78125 226.917969 203.898438 237.210938 206.527344 240.007812 L 206.527344 244.390625 C 206.179688 244.601562 205.847656 244.828125 205.554688 245.121094 C 204.671875 246.015625 204.179688 247.1875 204.179688 248.4375 L 204.179688 262.5 L 208.878906 262.5 L 208.878906 248.4375 L 237.074219 248.4375 L 237.074219 262.5 L 241.773438 262.5 L 241.773438 248.4375 C 241.773438 247.1875 241.28125 246.015625 240.398438 245.121094 C 240.105469 244.828125 239.773438 244.601562 239.425781 244.390625 L 239.425781 239.488281 L 246.472656 220.738281 L 246.472656 196.875 L 255.871094 196.875 C 257.128906 196.875 258.316406 196.382812 259.195312 195.503906 C 260.078125 194.625 260.574219 193.4375 260.574219 192.1875 L 260.574219 140.625 C 260.574219 139.375 260.078125 138.1875 259.195312 137.308594 " fill-opacity="1" fill-rule="nonzero"/></g><path fill="#040606" d="M 128.988281 145.3125 L 133.6875 145.3125 L 133.6875 150 L 128.988281 150 L 128.988281 145.3125 " fill-opacity="1" fill-rule="nonzero"/><path fill="#040606" d="M 138.386719 145.3125 L 143.085938 145.3125 L 143.085938 150 L 138.386719 150 L 138.386719 145.3125 " fill-opacity="1" fill-rule="nonzero"/><path fill="#040606" d="M 147.785156 145.3125 L 152.484375 145.3125 L 152.484375 150 L 147.785156 150 L 147.785156 145.3125 " fill-opacity="1" fill-rule="nonzero"/><path fill="#040606" d="M 157.183594 145.3125 L 161.882812 145.3125 L 161.882812 150 L 157.183594 150 L 157.183594 145.3125 " fill-opacity="1" fill-rule="nonzero"/><path fill="#040606" d="M 166.582031 145.3125 L 171.28125 145.3125 L 171.28125 150 L 166.582031 150 L 166.582031 145.3125 " fill-opacity="1" fill-rule="nonzero"/><path fill="#040606" d="M 175.980469 145.3125 L 180.679688 145.3125 L 180.679688 150 L 175.980469 150 L 175.980469 145.3125 " fill-opacity="1" fill-rule="nonzero"/><path fill="#040606" d="M 185.378906 145.3125 L 190.078125 145.3125 L 190.078125 150 L 185.378906 150 L 185.378906 145.3125 " fill-opacity="1" fill-rule="nonzero"/><path fill="#040606" d="M 194.78125 145.3125 L 199.480469 145.3125 L 199.480469 150 L 194.78125 150 L 194.78125 145.3125 " fill-opacity="1" fill-rule="nonzero"/><path fill="#040606" d="M 204.179688 145.3125 L 208.878906 145.3125 L 208.878906 150 L 204.179688 150 L 204.179688 145.3125 " fill-opacity="1" fill-rule="nonzero"/><path fill="#040606" d="M 213.578125 145.3125 L 218.277344 145.3125 L 218.277344 150 L 213.578125 150 L 213.578125 145.3125 " fill-opacity="1" fill-rule="nonzero"/><path fill="#040606" d="M 222.976562 145.3125 L 227.675781 145.3125 L 227.675781 150 L 222.976562 150 L 222.976562 145.3125 " fill-opacity="1" fill-rule="nonzero"/><path fill="#040606" d="M 232.375 145.3125 L 237.074219 145.3125 L 237.074219 150 L 232.375 150 L 232.375 145.3125 " fill-opacity="1" fill-rule="nonzero"/><path fill="#040606" d="M 241.773438 145.3125 L 246.472656 145.3125 L 246.472656 150 L 241.773438 150 L 241.773438 145.3125 " fill-opacity="1" fill-rule="nonzero"/><path fill="#040606" d="M 124.289062 154.6875 L 128.988281 154.6875 L 128.988281 159.375 L 124.289062 159.375 L 124.289062 154.6875 " fill-opacity="1" fill-rule="nonzero"/><path fill="#040606" d="M 133.6875 154.6875 L 138.386719 154.6875 L 138.386719 159.375 L 133.6875 159.375 L 133.6875 154.6875 " fill-opacity="1" fill-rule="nonzero"/><path fill="#040606" d="M 143.085938 154.6875 L 147.785156 154.6875 L 147.785156 159.375 L 143.085938 159.375 L 143.085938 154.6875 " fill-opacity="1" fill-rule="nonzero"/><path fill="#040606" d="M 152.484375 154.6875 L 157.183594 154.6875 L 157.183594 159.375 L 152.484375 159.375 L 152.484375 154.6875 " fill-opacity="1" fill-rule="nonzero"/><path fill="#040606" d="M 161.882812 154.6875 L 166.582031 154.6875 L 166.582031 159.375 L 161.882812 159.375 L 161.882812 154.6875 " fill-opacity="1" fill-rule="nonzero"/><path fill="#040606" d="M 171.28125 154.6875 L 175.980469 154.6875 L 175.980469 159.375 L 171.28125 159.375 L 171.28125 154.6875 " fill-opacity="1" fill-rule="nonzero"/><path fill="#040606" d="M 180.679688 154.6875 L 185.378906 154.6875 L 185.378906 159.375 L 180.679688 159.375 L 180.679688 154.6875 " fill-opacity="1" fill-rule="nonzero"/><path fill="#040606" d="M 190.078125 154.6875 L 194.78125 154.6875 L 194.78125 159.375 L 190.078125 159.375 L 190.078125 154.6875 " fill-opacity="1" fill-rule="nonzero"/><path fill="#040606" d="M 199.480469 154.6875 L 204.179688 154.6875 L 204.179688 159.375 L 199.480469 159.375 L 199.480469 154.6875 " fill-opacity="1" fill-rule="nonzero"/><path fill="#040606" d="M 208.878906 154.6875 L 213.578125 154.6875 L 213.578125 159.375 L 208.878906 159.375 L 208.878906 154.6875 " fill-opacity="1" fill-rule="nonzero"/><path fill="#040606" d="M 218.277344 154.6875 L 222.976562 154.6875 L 222.976562 159.375 L 218.277344 159.375 L 218.277344 154.6875 " fill-opacity="1" fill-rule="nonzero"/><path fill="#040606" d="M 227.675781 154.6875 L 232.375 154.6875 L 232.375 159.375 L 227.675781 159.375 L 227.675781 154.6875 " fill-opacity="1" fill-rule="nonzero"/><path fill="#040606" d="M 237.074219 154.6875 L 241.773438 154.6875 L 241.773438 159.375 L 237.074219 159.375 L 237.074219 154.6875 " fill-opacity="1" fill-rule="nonzero"/><path fill="#040606" d="M 246.472656 154.6875 L 251.171875 154.6875 L 251.171875 159.375 L 246.472656 159.375 L 246.472656 154.6875 " fill-opacity="1" fill-rule="nonzero"/><path fill="#040606" d="M 128.988281 164.0625 L 133.6875 164.0625 L 133.6875 168.75 L 128.988281 168.75 L 128.988281 164.0625 " fill-opacity="1" fill-rule="nonzero"/><path fill="#040606" d="M 138.386719 164.0625 L 143.085938 164.0625 L 143.085938 168.75 L 138.386719 168.75 L 138.386719 164.0625 " fill-opacity="1" fill-rule="nonzero"/><path fill="#040606" d="M 147.785156 164.0625 L 152.484375 164.0625 L 152.484375 168.75 L 147.785156 168.75 L 147.785156 164.0625 " fill-opacity="1" fill-rule="nonzero"/><path fill="#040606" d="M 157.183594 164.0625 L 161.882812 164.0625 L 161.882812 168.75 L 157.183594 168.75 L 157.183594 164.0625 " fill-opacity="1" fill-rule="nonzero"/><path fill="#040606" d="M 166.582031 164.0625 L 171.28125 164.0625 L 171.28125 168.75 L 166.582031 168.75 L 166.582031 164.0625 " fill-opacity="1" fill-rule="nonzero"/><path fill="#040606" d="M 175.980469 164.0625 L 180.679688 164.0625 L 180.679688 168.75 L 175.980469 168.75 L 175.980469 164.0625 " fill-opacity="1" fill-rule="nonzero"/><path fill="#040606" d="M 185.378906 164.0625 L 190.078125 164.0625 L 190.078125 168.75 L 185.378906 168.75 L 185.378906 164.0625 " fill-opacity="1" fill-rule="nonzero"/><path fill="#040606" d="M 194.78125 164.0625 L 199.480469 164.0625 L 199.480469 168.75 L 194.78125 168.75 L 194.78125 164.0625 " fill-opacity="1" fill-rule="nonzero"/><path fill="#040606" d="M 204.179688 164.0625 L 208.878906 164.0625 L 208.878906 168.75 L 204.179688 168.75 L 204.179688 164.0625 " fill-opacity="1" fill-rule="nonzero"/><path fill="#040606" d="M 213.578125 164.0625 L 218.277344 164.0625 L 218.277344 168.75 L 213.578125 168.75 L 213.578125 164.0625 " fill-opacity="1" fill-rule="nonzero"/><path fill="#040606" d="M 222.976562 164.0625 L 227.675781 164.0625 L 227.675781 168.75 L 222.976562 168.75 L 222.976562 164.0625 " fill-opacity="1" fill-rule="nonzero"/><path fill="#040606" d="M 232.375 164.0625 L 237.074219 164.0625 L 237.074219 168.75 L 232.375 168.75 L 232.375 164.0625 " fill-opacity="1" fill-rule="nonzero"/><path fill="#040606" d="M 241.773438 164.0625 L 246.472656 164.0625 L 246.472656 168.75 L 241.773438 168.75 L 241.773438 164.0625 " fill-opacity="1" fill-rule="nonzero"/><path fill="#040606" d="M 124.289062 173.4375 L 128.988281 173.4375 L 128.988281 178.125 L 124.289062 178.125 L 124.289062 173.4375 " fill-opacity="1" fill-rule="nonzero"/><path fill="#040606" d="M 133.6875 173.4375 L 138.386719 173.4375 L 138.386719 178.125 L 133.6875 178.125 L 133.6875 173.4375 " fill-opacity="1" fill-rule="nonzero"/><path fill="#040606" d="M 171.28125 173.4375 L 175.980469 173.4375 L 175.980469 178.125 L 171.28125 178.125 L 171.28125 173.4375 " fill-opacity="1" fill-rule="nonzero"/><path fill="#040606" d="M 180.679688 173.4375 L 185.378906 173.4375 L 185.378906 178.125 L 180.679688 178.125 L 180.679688 173.4375 " fill-opacity="1" fill-rule="nonzero"/><path fill="#040606" d="M 190.078125 173.4375 L 194.78125 173.4375 L 194.78125 178.125 L 190.078125 178.125 L 190.078125 173.4375 " fill-opacity="1" fill-rule="nonzero"/><path fill="#040606" d="M 199.480469 173.4375 L 204.179688 173.4375 L 204.179688 178.125 L 199.480469 178.125 L 199.480469 173.4375 " fill-opacity="1" fill-rule="nonzero"/><path fill="#040606" d="M 237.074219 173.4375 L 241.773438 173.4375 L 241.773438 178.125 L 237.074219 178.125 L 237.074219 173.4375 " fill-opacity="1" fill-rule="nonzero"/><path fill="#040606" d="M 246.472656 173.4375 L 251.171875 173.4375 L 251.171875 178.125 L 246.472656 178.125 L 246.472656 173.4375 " fill-opacity="1" fill-rule="nonzero"/><path fill="#040606" d="M 175.980469 182.8125 L 199.480469 182.8125 L 199.480469 187.5 L 175.980469 187.5 L 175.980469 182.8125 " fill-opacity="1" fill-rule="nonzero"/></svg>