<svg xmlns="http://www.w3.org/2000/svg" xmlns:xlink="http://www.w3.org/1999/xlink" width="500" zoomAndPan="magnify" viewBox="0 0 375 374.999991" height="500" preserveAspectRatio="xMidYMid meet" version="1.0"><path fill="#efefef" d="M 204.601562 157.015625 L 203.144531 157.667969 L 208.53125 169.613281 L 204.644531 161 C 204.589844 161 204.539062 160.996094 204.484375 160.996094 C 200.414062 154.496094 192.054688 151.828125 184.851562 155.058594 L 182.25 156.226562 C 182.25 156.226562 190.394531 174.273438 190.628906 174.796875 C 190.949219 175.507812 183.453125 158.886719 184.097656 160.316406 C 180.835938 153.089844 172.320312 149.867188 165.074219 153.117188 L 161.359375 154.78125 L 173.207031 181.050781 L 147.207031 123.40625 C 144.699219 117.84375 138.140625 115.363281 132.5625 117.863281 C 126.984375 120.367188 124.496094 126.90625 127.003906 132.46875 L 160 205.621094 C 129.902344 197.429688 129.976562 201.976562 126.984375 206.976562 C 123.851562 212.214844 125.566406 218.992188 130.820312 222.121094 L 177.390625 249.832031 C 183.203125 253.308594 191.8125 260.324219 214.035156 250.355469 L 228.429688 243.902344 C 243.980469 236.925781 250.878906 218.617188 243.835938 203.007812 L 242.710938 200.515625 L 233.15625 179.328125 L 226.894531 165.449219 C 223.074219 156.984375 213.09375 153.203125 204.601562 157.015625 " fill-opacity="1" fill-rule="nonzero"/><path fill="#302f2b" d="M 132.3125 204.195312 C 131.074219 204.75 130.546875 205.695312 129.742188 207.136719 C 129.539062 207.496094 129.332031 207.867188 129.109375 208.238281 C 127.929688 210.207031 127.59375 212.515625 128.15625 214.734375 C 128.71875 216.957031 130.113281 218.828125 132.089844 220.003906 L 178.65625 247.714844 C 179.058594 247.957031 179.46875 248.210938 179.894531 248.472656 C 185.628906 252.019531 193.476562 256.875 213.019531 248.109375 L 227.414062 241.652344 C 241.695312 235.246094 248.054688 218.363281 241.582031 204.019531 L 224.640625 166.460938 C 221.507812 159.515625 213.476562 156.261719 206.421875 158.929688 L 210.789062 168.601562 C 211.347656 169.84375 210.792969 171.304688 209.546875 171.863281 C 208.300781 172.421875 206.835938 171.867188 206.277344 170.625 L 202.707031 162.707031 C 202.585938 162.585938 202.476562 162.449219 202.386719 162.304688 C 198.929688 156.78125 191.824219 154.632812 185.863281 157.308594 L 185.519531 157.460938 L 192.894531 173.808594 C 193.453125 175.050781 192.898438 176.507812 191.652344 177.066406 C 190.410156 177.625 188.945312 177.074219 188.382812 175.832031 L 181.839844 161.324219 C 179.144531 155.351562 172.082031 152.675781 166.089844 155.363281 L 164.628906 156.019531 L 175.464844 180.039062 C 176.023438 181.28125 175.46875 182.738281 174.222656 183.296875 C 172.976562 183.855469 171.511719 183.304688 170.953125 182.0625 L 144.953125 124.417969 C 143.007812 120.105469 137.902344 118.171875 133.578125 120.113281 C 129.25 122.054688 127.3125 127.144531 129.257812 131.457031 L 162.257812 204.609375 C 162.648438 205.476562 162.503906 206.496094 161.878906 207.222656 C 161.257812 207.945312 160.273438 208.25 159.351562 207.996094 C 146.941406 204.621094 138.820312 203.207031 134.511719 203.671875 C 133.574219 203.773438 132.871094 203.945312 132.3125 204.195312 Z M 229.441406 246.148438 L 215.050781 252.605469 C 193.105469 262.445312 183.203125 256.324219 177.289062 252.664062 C 176.886719 252.414062 176.496094 252.171875 176.117188 251.949219 L 129.554688 224.234375 C 126.445312 222.386719 124.246094 219.441406 123.359375 215.941406 C 122.476562 212.445312 123.007812 208.8125 124.863281 205.710938 C 125.058594 205.382812 125.242188 205.054688 125.421875 204.734375 C 128.914062 198.484375 133.039062 196.1875 155.621094 201.914062 L 124.75 133.480469 C 121.6875 126.6875 124.734375 118.671875 131.546875 115.617188 C 138.359375 112.5625 146.398438 115.601562 149.460938 122.394531 L 162.601562 151.523438 L 164.0625 150.867188 C 170.273438 148.082031 177.304688 149.367188 182.117188 153.582031 L 183.835938 152.8125 C 190.15625 149.976562 197.414062 151.082031 202.585938 155.214844 L 203.585938 154.765625 C 213.308594 150.40625 224.777344 154.746094 229.152344 164.441406 L 246.089844 201.996094 C 253.679688 218.820312 246.210938 238.628906 229.441406 246.148438 " fill-opacity="1" fill-rule="nonzero"/></svg>