<svg xmlns="http://www.w3.org/2000/svg" xmlns:xlink="http://www.w3.org/1999/xlink" width="500" zoomAndPan="magnify" viewBox="0 0 375 374.999991" height="500" preserveAspectRatio="xMidYMid meet" version="1.0"><defs><clipPath id="f03aa117e4"><path d="M 112.5 116.046875 L 262 116.046875 L 262 259.296875 L 112.5 259.296875 Z M 112.5 116.046875 " clip-rule="nonzero"/></clipPath><clipPath id="09d2789182"><path d="M 112.5 119 L 259 119 L 259 259 L 112.5 259 Z M 112.5 119 " clip-rule="nonzero"/></clipPath><clipPath id="0641b14768"><path d="M 113 116.046875 L 217 116.046875 L 217 162 L 113 162 Z M 113 116.046875 " clip-rule="nonzero"/></clipPath><clipPath id="4429d23e70"><path d="M 112.5 116.046875 L 262.5 116.046875 L 262.5 259.296875 L 112.5 259.296875 Z M 112.5 116.046875 " clip-rule="nonzero"/></clipPath></defs><g clip-path="url(#f03aa117e4)"><path fill="#efefef" d="M 261.855469 126.648438 L 260.628906 215.597656 C 260.625 215.609375 260.617188 215.625 260.609375 215.636719 L 260.609375 215.730469 C 260.558594 215.84375 259.320312 218.710938 256.816406 219.535156 C 256.03125 219.796875 246.730469 222.140625 234.421875 225.203125 L 233.605469 228.722656 L 233.480469 228.75 L 223.125 231.257812 C 227.714844 232.75 233.464844 234.863281 235.804688 236.746094 C 239.949219 240.078125 238.050781 244.722656 238.027344 244.769531 L 237.988281 244.863281 L 237.890625 244.886719 L 180.660156 259.238281 L 180.601562 259.214844 L 139.960938 243.085938 L 140.203125 242.863281 C 140.203125 242.863281 140.574219 242.511719 140.859375 241.28125 C 141.175781 239.929688 143.367188 237.683594 143.460938 237.589844 L 143.511719 237.554688 L 147.921875 235.300781 L 144.722656 234.246094 L 144.515625 234.179688 L 144.515625 223.636719 L 133.191406 220.980469 L 119.257812 200.292969 L 119.257812 183.824219 L 112.742188 181.929688 L 112.742188 130.578125 C 112.75 130.476562 112.964844 128.53125 116.320312 127.277344 C 119.5625 126.046875 179.796875 116.613281 182.355469 116.203125 L 182.4375 116.203125 L 209.460938 123.347656 L 240.058594 118.722656 L 240.101562 118.722656 L 260.21875 123.96875 L 260.148438 124.054688 C 260.605469 124.21875 261.011719 124.492188 261.339844 124.851562 C 261.347656 124.863281 261.355469 124.875 261.363281 124.886719 C 261.398438 124.917969 261.433594 124.949219 261.464844 124.984375 C 261.84375 125.453125 261.984375 126.066406 261.855469 126.648438 Z M 261.855469 126.648438 " fill-opacity="1" fill-rule="nonzero"/></g><g clip-path="url(#09d2789182)"><path fill="#302f2b" d="M 240.390625 119.003906 L 210.6875 123.464844 L 210.335938 123.515625 L 209.714844 123.609375 L 209.785156 123.609375 L 210.402344 123.535156 L 210.75 123.484375 L 223.015625 126.722656 L 223.011719 126.734375 L 210.773438 123.507812 L 210.441406 123.558594 L 210.402344 123.550781 L 209.785156 123.640625 L 209.667969 123.640625 L 196.808594 125.578125 L 196.773438 125.566406 L 148.015625 132.917969 L 147.949219 132.953125 C 147.101562 133.535156 146.378906 134.273438 145.816406 135.132812 L 155.480469 137.710938 L 157.5625 138.269531 L 163.9375 139.972656 C 164.191406 139.554688 164.609375 139.257812 165.085938 139.15625 L 219.699219 130.078125 L 219.722656 130.054688 L 258.25 123.648438 L 258.292969 123.660156 L 258.355469 123.660156 Z M 222.964844 127.097656 L 222.957031 127.105469 L 222.960938 127.097656 Z M 214.203125 124.539062 L 214.742188 124.675781 L 214.726562 124.679688 L 214.203125 124.546875 L 212.152344 124.007812 Z M 197.179688 125.703125 C 197.074219 125.667969 196.96875 125.632812 196.863281 125.597656 L 196.867188 125.597656 C 196.972656 125.628906 197.078125 125.664062 197.179688 125.703125 Z M 208.757812 129.777344 C 208.757812 129.777344 205.96875 128.773438 202.183594 127.445312 C 201.988281 127.375 201.773438 127.296875 201.570312 127.226562 C 201.773438 127.296875 201.988281 127.375 202.1875 127.445312 C 205.949219 128.765625 208.730469 129.761719 208.757812 129.777344 Z M 214.1875 124.8125 L 214.179688 124.808594 L 213.859375 124.878906 L 210.441406 128.164062 L 213.855469 124.875 L 214.171875 124.808594 L 213.980469 124.761719 L 213.976562 124.761719 L 213.992188 124.75 L 214.210938 124.8125 L 214.226562 124.808594 L 222.941406 127.121094 L 218.335938 125.90625 L 222.941406 127.117188 L 214.203125 124.816406 Z M 119.515625 183.445312 L 119.308594 183.378906 L 119.105469 183.320312 L 112.964844 181.546875 L 112.964844 130.46875 C 112.976562 130.382812 113 130.300781 113.035156 130.21875 L 144.460938 138.757812 L 144.460938 141.628906 C 142.898438 141.558594 140.777344 142.296875 140.777344 146.957031 C 140.777344 150.113281 140.75 164.675781 140.75 180.308594 L 140.75 181.253906 C 140.75 184.023438 140.75 186.828125 140.75 189.597656 Z M 148.285156 235.414062 L 165.929688 241.164062 L 166.003906 241.207031 L 148.261719 235.402344 L 148.121094 235.355469 L 148.058594 235.355469 L 147.90625 235.308594 L 144.699219 234.25 L 144.699219 234.230469 L 147.933594 235.296875 L 148.082031 235.34375 Z M 119.515625 187.566406 L 139.355469 193.503906 L 139.019531 221.914062 L 133.34375 220.589844 L 119.515625 200.117188 Z M 145.25 135.242188 C 136.234375 133.058594 123.316406 129.929688 115.242188 127.996094 C 115.582031 127.816406 115.933594 127.660156 116.296875 127.527344 C 117.113281 127.210938 121.796875 126.339844 128.316406 125.21875 C 131.074219 126.761719 133.453125 128.015625 134.652344 128.5 C 137.257812 129.496094 140.050781 129.914062 142.832031 129.730469 C 142.832031 129.730469 178.015625 120.296875 182.515625 121.117188 C 184.59375 121.492188 190.339844 123.367188 195.929688 125.277344 L 147.921875 132.511719 L 147.855469 132.535156 C 147.800781 132.566406 146.613281 133.167969 145.25 135.242188 Z M 163.292969 233.96875 L 163.292969 234.128906 C 163.355469 237.085938 163.953125 239.214844 165.085938 240.476562 L 149.332031 235.324219 L 148.949219 235.195312 L 144.882812 233.867188 L 144.882812 138.65625 L 156.222656 141.964844 L 163.292969 144.015625 L 163.292969 233.695312 C 163.292969 233.789062 163.292969 233.878906 163.292969 233.96875 Z M 194.484375 227.511719 L 194.386719 228.082031 L 194.476562 231.308594 L 194.476562 231.648438 L 185.789062 233.574219 L 185.789062 229.71875 Z M 180.226562 251.722656 L 180.265625 251.722656 L 180.265625 258.632812 L 140.601562 242.945312 C 140.886719 242.464844 141.089844 241.941406 141.195312 241.390625 C 141.46875 240.214844 143.4375 238.15625 143.675781 237.910156 L 143.925781 237.78125 Z M 218.335938 125.902344 L 214.183594 124.8125 L 214.167969 124.804688 Z M 249.289062 146.320312 C 249.289062 150.625 248.515625 202.28125 248.515625 202.28125 C 248.515625 202.28125 248.125 205.019531 246.195312 205.804688 C 244.347656 206.558594 188.097656 219.707031 182.691406 220.976562 L 182.601562 220.996094 L 182.269531 221.078125 C 182.195312 221.101562 182.121094 221.117188 182.046875 221.128906 C 181.34375 221.234375 179.183594 221.089844 179.183594 215.203125 L 179.183594 214.496094 C 179.230469 214.742188 179.289062 214.972656 179.351562 215.191406 C 179.355469 215.203125 179.355469 215.214844 179.359375 215.222656 C 179.460938 215.804688 179.601562 216.285156 179.757812 216.675781 C 180.632812 218.816406 182.164062 218.234375 182.164062 218.234375 L 184.890625 217.601562 L 185.441406 217.476562 L 185.527344 217.476562 C 198.203125 214.539062 242.476562 204.261719 244.085938 203.617188 C 245.960938 202.867188 246.335938 200.238281 246.335938 200.238281 C 246.335938 200.238281 247.089844 150.703125 247.089844 146.578125 C 247.089844 146.402344 247.082031 146.242188 247.074219 146.082031 C 246.992188 144.769531 246.570312 143.980469 246.070312 143.507812 C 245.8125 143.265625 245.527344 143.101562 245.257812 143 L 245.199219 142.980469 C 245.082031 142.933594 244.960938 142.898438 244.832031 142.875 C 244.660156 142.839844 244.480469 142.820312 244.304688 142.8125 L 244.214844 142.78125 L 245.03125 142.644531 L 245.558594 142.550781 L 245.640625 142.550781 L 246.222656 142.453125 C 246.222656 142.453125 249.289062 142.015625 249.289062 146.320312 Z M 184.871094 229.835938 L 184.769531 230.414062 L 184.816406 232.136719 L 184.816406 232.292969 L 184.859375 233.976562 L 176.171875 235.902344 L 176.171875 232.054688 Z M 184.871094 229.835938 " fill-opacity="1" fill-rule="nonzero"/></g><path fill="#efefef" d="M 244.75 143.570312 C 244.28125 143.175781 243.671875 142.984375 243.066406 143.035156 L 215.339844 147.816406 L 196.417969 151.074219 C 187.867188 152.542969 181.375 153.660156 180.679688 153.777344 C 180.199219 153.878906 179.785156 154.179688 179.539062 154.609375 C 178.675781 155.914062 178.65625 158.304688 178.65625 158.371094 C 178.660156 158.550781 178.714844 161.949219 178.792969 166.984375 C 178.988281 180.785156 179.398438 206.863281 179.398438 211.6875 C 179.398438 215.101562 180.179688 216.363281 180.835938 216.832031 C 181.1875 217.085938 181.644531 217.167969 182.0625 217.046875 L 186.152344 216.09375 L 186.703125 215.96875 L 186.792969 215.945312 C 200.863281 212.675781 241.472656 203.21875 242.972656 202.617188 C 244.6875 201.929688 245.0625 199.46875 245.0625 199.441406 C 245.066406 198.980469 245.800781 150.558594 245.800781 146.539062 C 245.800781 145.167969 245.464844 144.191406 244.800781 143.609375 Z M 244.75 143.570312 " fill-opacity="1" fill-rule="nonzero"/><g clip-path="url(#0641b14768)"><path fill="#efefef" d="M 196.015625 158.542969 C 196.199219 158.898438 196.066406 159.335938 195.714844 159.523438 C 195.710938 159.527344 195.707031 159.527344 195.699219 159.53125 C 195.316406 159.710938 194.917969 159.863281 194.507812 159.976562 C 194.449219 159.976562 194.363281 159.917969 194.203125 159.847656 C 194.542969 159.742188 194.792969 159.6875 195.019531 159.59375 C 195.21875 159.523438 195.40625 159.421875 195.582031 159.300781 C 195.789062 159.164062 195.871094 158.894531 195.761719 158.664062 C 195.675781 158.429688 195.4375 158.292969 195.191406 158.335938 C 194.796875 158.386719 194.4375 158.589844 194.1875 158.898438 C 194.113281 158.957031 194.03125 159.003906 193.941406 159.03125 C 193.917969 158.941406 193.902344 158.851562 193.898438 158.757812 C 193.898438 158.433594 193.898438 158.113281 193.929688 157.734375 C 193.722656 157.777344 193.515625 157.808594 193.304688 157.835938 C 193.230469 157.835938 193.15625 157.785156 193.082031 157.75 C 193.140625 157.699219 193.1875 157.609375 193.253906 157.59375 C 193.460938 157.546875 193.667969 157.511719 193.878906 157.480469 C 193.878906 157.28125 193.855469 157.105469 193.84375 156.90625 L 194.109375 156.859375 C 194.109375 157.042969 194.109375 157.214844 194.132812 157.457031 C 194.542969 157.332031 194.898438 157.210938 195.269531 157.105469 C 195.378906 157.097656 195.492188 157.105469 195.597656 157.128906 C 195.519531 157.203125 195.460938 157.304688 195.367188 157.335938 C 195.078125 157.445312 194.78125 157.539062 194.480469 157.609375 C 194.238281 157.667969 194.101562 157.753906 194.160156 158.019531 C 194.175781 158.183594 194.175781 158.34375 194.160156 158.507812 C 194.464844 158.34375 194.78125 158.210938 195.109375 158.09375 C 195.472656 157.960938 195.875 158.148438 196.007812 158.511719 C 196.011719 158.523438 196.015625 158.53125 196.015625 158.542969 Z M 189.351562 159.558594 C 189.238281 159.863281 189.101562 160.160156 188.941406 160.441406 C 188.816406 160.5625 188.648438 160.625 188.476562 160.609375 C 188.382812 160.609375 188.28125 160.40625 188.230469 160.273438 C 188.191406 160.113281 188.160156 159.949219 188.136719 159.789062 C 188.101562 159.550781 187.886719 159.378906 187.648438 159.410156 C 187.574219 159.417969 187.507812 159.449219 187.449219 159.496094 C 187.277344 159.601562 187.113281 159.714844 186.953125 159.839844 L 187.28125 158.164062 L 187.230469 158.066406 C 187.140625 158.148438 186.996094 158.210938 186.980469 158.304688 C 186.808594 159.195312 186.664062 160.085938 186.523438 160.976562 C 186.523438 161.058594 186.605469 161.148438 186.621094 161.175781 C 186.855469 160.699219 187.03125 160.265625 187.292969 159.855469 C 187.410156 159.738281 187.566406 159.683594 187.730469 159.703125 C 187.804688 159.703125 187.867188 159.917969 187.917969 160.042969 C 187.941406 160.152344 187.957031 160.257812 187.964844 160.363281 C 187.996094 160.703125 188.300781 160.953125 188.640625 160.921875 C 188.765625 160.910156 188.886719 160.859375 188.988281 160.777344 C 189.292969 160.523438 189.476562 160.148438 189.488281 159.746094 C 189.507812 159.703125 189.402344 159.628906 189.351562 159.566406 Z M 199.445312 158.382812 C 199.277344 158.273438 199.035156 158.203125 198.960938 158.046875 C 198.859375 157.78125 198.792969 157.511719 198.757812 157.230469 C 198.914062 157.1875 199.066406 157.132812 199.21875 157.070312 C 199.300781 157.03125 199.347656 156.9375 199.414062 156.867188 C 199.328125 156.847656 199.238281 156.835938 199.152344 156.84375 C 199.003906 156.878906 198.859375 156.925781 198.71875 156.976562 C 198.671875 156.695312 198.625 156.445312 198.582031 156.15625 L 198.296875 156.246094 C 198.339844 156.527344 198.386719 156.777344 198.433594 157.0625 C 198.191406 157.101562 197.972656 157.136719 197.753906 157.183594 C 197.703125 157.183594 197.660156 157.257812 197.613281 157.292969 C 197.675781 157.328125 197.734375 157.394531 197.792969 157.390625 C 198.019531 157.367188 198.238281 157.320312 198.519531 157.273438 L 198.675781 158.171875 C 198.019531 158.28125 197.777344 158.441406 197.789062 158.769531 C 197.800781 159.097656 198.023438 159.222656 198.3125 159.246094 C 198.796875 159.285156 198.980469 159.117188 199.101562 158.515625 L 199.671875 158.765625 C 199.824219 158.472656 199.574219 158.46875 199.441406 158.378906 Z M 205.136719 156.5625 L 205.875 157.320312 L 204.027344 157.765625 C 204.148438 156.90625 204.257812 156.125 204.375 155.308594 L 204.246094 155.226562 C 204.1875 155.324219 204.089844 155.417969 204.074219 155.519531 C 203.980469 156.117188 203.910156 156.722656 203.832031 157.324219 C 203.800781 157.589844 203.792969 157.871094 203.421875 157.976562 C 203.496094 158.050781 203.605469 158.089844 203.710938 158.085938 C 204.351562 157.945312 204.992188 157.804688 205.617188 157.621094 C 205.914062 157.53125 206.136719 157.519531 206.34375 157.835938 C 206.398438 157.722656 206.433594 157.613281 206.390625 157.546875 C 205.988281 156.929688 205.367188 156.429688 205.128906 156.5625 Z M 211.6875 156.703125 C 211.414062 156.855469 211.074219 156.75 210.925781 156.476562 C 210.898438 156.425781 210.878906 156.375 210.867188 156.316406 C 210.707031 155.605469 210.609375 154.875 210.488281 154.140625 L 210.207031 154.1875 C 210.328125 154.917969 210.429688 155.621094 210.574219 156.320312 C 210.648438 156.765625 211.070312 157.066406 211.515625 156.992188 C 211.519531 156.992188 211.519531 156.992188 211.523438 156.992188 C 212.070312 156.9375 212.558594 156.636719 212.851562 156.171875 C 212.902344 156.105469 212.851562 155.980469 212.851562 155.9375 C 212.484375 156.222656 212.089844 156.476562 211.679688 156.699219 Z M 202.601562 155.664062 L 202.535156 155.539062 C 202.433594 155.570312 202.335938 155.613281 202.246094 155.671875 C 201.882812 156.082031 201.550781 156.488281 201.171875 156.863281 C 200.796875 157.230469 200.476562 157.460938 200.113281 157.769531 C 200.160156 157.8125 200.214844 157.878906 200.222656 157.871094 C 200.632812 157.589844 201.039062 157.300781 201.472656 156.992188 C 201.5625 157.492188 201.644531 157.976562 201.722656 158.464844 C 201.75 158.632812 201.785156 158.777344 202.03125 158.640625 C 201.941406 158.097656 201.828125 157.566406 201.769531 157 C 201.765625 156.796875 201.824219 156.605469 201.941406 156.4375 C 202.144531 156.167969 202.363281 155.910156 202.59375 155.664062 Z M 207.617188 154.488281 L 207.515625 154.464844 C 207.484375 154.59375 207.453125 154.714844 207.414062 154.875 C 207.140625 155.027344 206.734375 154.902344 206.46875 155.144531 L 206.496094 155.257812 L 207.472656 155.085938 C 207.621094 155.359375 207.472656 155.40625 207.292969 155.453125 C 207.109375 155.5 206.832031 155.453125 206.601562 155.742188 L 207.542969 155.585938 L 207.605469 155.710938 C 207.417969 156.121094 206.859375 155.957031 206.523438 156.296875 C 206.894531 156.429688 207.167969 156.125 207.503906 156.203125 L 206.886719 156.710938 L 207.089844 156.824219 C 207.96875 156.167969 207.960938 156.003906 207.613281 154.488281 Z M 208.582031 156.367188 C 208.617188 156.25 208.652344 156.128906 208.6875 156.011719 C 208.6875 156.011719 208.6875 155.976562 208.765625 155.878906 L 209.742188 155.707031 L 209.71875 155.585938 C 209.542969 155.621094 209.363281 155.640625 209.183594 155.644531 C 208.988281 155.644531 208.679688 155.910156 208.625 155.570312 C 208.566406 155.230469 208.945312 155.410156 209.113281 155.328125 C 209.238281 155.285156 209.367188 155.253906 209.492188 155.234375 L 209.464844 155.085938 C 209.238281 155.121094 209.007812 155.148438 208.777344 155.1875 C 208.550781 155.230469 208.484375 155.136719 208.542969 154.875 L 209.519531 154.707031 L 209.519531 154.566406 L 208.492188 154.683594 C 208.460938 154.574219 208.429688 154.472656 208.394531 154.371094 L 208.269531 154.347656 C 208.238281 154.4375 208.21875 154.535156 208.21875 154.636719 C 208.289062 155.105469 208.363281 155.578125 208.457031 156.046875 C 208.488281 156.15625 208.53125 156.269531 208.582031 156.371094 Z M 214.59375 155.34375 C 214.585938 155.421875 214.566406 155.503906 214.542969 155.582031 C 214.433594 155.777344 214.320312 155.972656 214.207031 156.160156 C 214.023438 155.992188 213.839844 155.824219 213.664062 155.644531 C 213.625 155.585938 213.601562 155.511719 213.59375 155.441406 C 213.507812 154.96875 213.433594 154.484375 213.335938 153.90625 C 213.246094 153.984375 213.113281 154.046875 213.121094 154.101562 C 213.199219 154.761719 213.207031 155.441406 213.585938 156.019531 C 213.765625 156.289062 213.996094 156.503906 214.359375 156.390625 C 214.632812 156.179688 214.785156 155.847656 214.769531 155.503906 C 214.773438 155.445312 214.675781 155.410156 214.589844 155.335938 Z M 190.566406 159.40625 L 190.414062 159.929688 L 190.292969 159.929688 C 190.226562 159.1875 190.164062 158.4375 190.085938 157.59375 C 190 157.726562 189.878906 157.832031 189.882812 157.921875 C 189.910156 158.492188 189.953125 159.058594 190.019531 159.625 C 190.070312 159.90625 190.15625 160.183594 190.261719 160.445312 C 190.28125 160.503906 190.371094 160.539062 190.429688 160.582031 C 190.476562 160.527344 190.511719 160.464844 190.539062 160.390625 C 190.59375 160.160156 190.640625 159.925781 190.671875 159.691406 C 190.679688 159.597656 190.679688 159.503906 190.671875 159.402344 L 190.566406 159.402344 Z M 197.335938 158.148438 L 197.222656 158.148438 L 197.066406 158.664062 L 196.9375 158.664062 C 196.894531 157.964844 196.851562 157.265625 196.804688 156.503906 C 196.734375 156.574219 196.585938 156.636719 196.585938 156.707031 C 196.539062 157.566406 196.660156 158.421875 196.9375 159.238281 C 196.964844 159.316406 197.078125 159.363281 197.152344 159.425781 L 197.230469 159.375 C 197.09375 158.953125 197.425781 158.5625 197.335938 158.152344 Z M 183.886719 160.515625 C 183.921875 160.382812 183.976562 160.257812 184.039062 160.085938 C 183.925781 160.113281 183.8125 160.117188 183.808594 160.148438 C 183.710938 160.410156 183.667969 160.6875 183.683594 160.964844 C 183.777344 161.183594 183.96875 161.335938 184.203125 161.378906 C 184.789062 161.324219 185.375 161.242188 185.949219 161.121094 C 185.996094 161.121094 186.027344 160.984375 186.09375 160.867188 C 185.445312 160.976562 184.914062 161.105469 184.371094 161.148438 C 183.964844 161.21875 183.777344 160.910156 183.882812 160.519531 Z M 184.652344 159.152344 L 184.242188 159.5625 L 184.320312 159.667969 C 184.6875 159.414062 185.0625 159.164062 185.425781 158.902344 C 185.46875 158.871094 185.453125 158.753906 185.46875 158.667969 L 183.480469 159.109375 L 183.480469 159.238281 C 183.863281 159.421875 184.242188 159.109375 184.648438 159.152344 Z M 191.921875 159.769531 C 191.476562 159.769531 191.324219 159.527344 191.511719 159.117188 C 191.542969 159.042969 191.582031 158.976562 191.644531 158.855469 C 191.523438 158.855469 191.398438 158.855469 191.390625 158.875 C 191.28125 159.101562 191.226562 159.351562 191.230469 159.605469 C 191.308594 159.816406 191.488281 159.96875 191.703125 160.015625 C 192.082031 160.023438 192.457031 159.992188 192.828125 159.921875 C 192.878906 159.921875 192.921875 159.796875 193.019531 159.660156 C 192.738281 159.707031 192.589844 159.738281 192.433594 159.761719 C 192.265625 159.777344 192.09375 159.78125 191.925781 159.773438 Z M 208.996094 156.898438 C 208.996094 157.199219 208.914062 157.351562 208.585938 157.394531 C 207.957031 157.472656 207.964844 157.496094 207.832031 156.875 C 207.796875 156.789062 207.75 156.71875 207.691406 156.652344 L 207.578125 156.710938 C 207.609375 156.957031 207.65625 157.203125 207.714844 157.441406 C 207.769531 157.5625 207.875 157.644531 208.003906 157.671875 C 208.328125 157.648438 208.65625 157.597656 208.976562 157.515625 C 209.066406 157.492188 209.15625 157.332031 209.175781 157.226562 C 209.195312 157.117188 209.128906 157.003906 209.097656 156.894531 Z M 215.203125 153.847656 C 215.152344 153.847656 215.089844 153.890625 215.03125 153.925781 C 215.0625 153.976562 215.078125 154.058594 215.125 154.078125 C 215.535156 154.273438 215.859375 154.617188 216.023438 155.039062 C 216.070312 155.089844 216.140625 155.117188 216.210938 155.117188 C 216.246094 155.117188 216.28125 155.023438 216.292969 155 C 216.101562 154.484375 215.703125 154.074219 215.199219 153.863281 Z M 192.496094 157.640625 C 192.039062 157.71875 191.589844 157.828125 191.148438 157.960938 C 191.082031 157.960938 191.035156 158.082031 190.980469 158.152344 L 191.050781 158.246094 L 192.535156 157.835938 Z M 209.109375 156.519531 L 209.925781 157.300781 C 209.925781 157.175781 209.984375 157.078125 209.953125 157.019531 C 209.785156 156.710938 209.460938 156.519531 209.109375 156.519531 Z M 207.097656 157.65625 C 207.199219 157.480469 207.277344 157.300781 207.328125 157.105469 C 207.394531 156.898438 207.304688 156.792969 207.082031 156.824219 C 207.023438 157.117188 206.96875 157.410156 206.902344 157.734375 C 206.9375 157.722656 207.0625 157.714844 207.097656 157.65625 Z M 208.699219 156.722656 C 208.191406 156.3125 207.976562 156.261719 207.785156 156.46875 C 208.101562 156.476562 208.289062 156.835938 208.699219 156.722656 Z M 198.4375 158.695312 C 198.398438 158.683594 198.359375 158.683594 198.320312 158.695312 L 198.46875 158.695312 M 145.25 135.234375 C 145 135.609375 144.746094 136.027344 144.492188 136.511719 L 144.46875 136.550781 L 144.46875 138.765625 L 113.035156 130.21875 C 113.183594 129.777344 113.679688 128.820312 115.242188 127.988281 C 123.316406 129.921875 136.234375 133.050781 145.25 135.234375 Z M 182.484375 116.457031 C 181.046875 116.683594 147.0625 122 128.316406 125.21875 C 131.074219 126.757812 133.453125 128.011719 134.652344 128.5 C 137.257812 129.496094 140.050781 129.914062 142.832031 129.730469 C 142.832031 129.730469 178.015625 120.296875 182.515625 121.117188 C 184.59375 121.492188 190.339844 123.367188 195.929688 125.277344 L 208.660156 123.359375 Z M 157.558594 138.273438 L 155.472656 137.71875 L 145.808594 135.136719 C 145.765625 135.207031 145.714844 135.269531 145.667969 135.339844 C 145.382812 135.765625 145.121094 136.207031 144.878906 136.660156 L 144.878906 138.660156 L 156.214844 141.945312 L 163.285156 143.996094 L 163.285156 143.839844 C 163.285156 143.722656 163.050781 141.292969 163.9375 139.960938 Z M 157.558594 138.273438 " fill-opacity="1" fill-rule="nonzero"/></g><g clip-path="url(#4429d23e70)"><path fill="#302f2b" d="M 217.523438 229.484375 C 223.367188 228.039062 229.09375 226.613281 234.296875 225.324219 L 233.605469 228.414062 L 222.664062 231.046875 L 222.609375 231.046875 L 222.242188 231.136719 L 221.886719 231.222656 L 174.378906 242.664062 C 173.574219 242.117188 172.878906 241.417969 172.332031 240.613281 C 180.605469 238.5625 199.230469 233.992188 216.921875 229.609375 L 217.0625 229.578125 L 217.453125 229.480469 Z M 256.898438 138.875 C 256.898438 143.964844 255.984375 205.039062 255.984375 205.039062 C 255.984375 205.039062 255.527344 208.277344 253.234375 209.207031 C 250.941406 210.132812 179.597656 226.808594 177.726562 227.253906 L 177.6875 227.253906 L 177.636719 227.273438 C 177.46875 227.316406 177.300781 227.339844 177.125 227.339844 C 176.101562 227.339844 174.027344 226.585938 174.027344 220.3125 C 174.027344 215.035156 173.660156 189.679688 173.386719 171.824219 C 173.234375 161.503906 173.109375 153.6875 173.109375 153.6875 C 173.109375 153.6875 173.109375 148.140625 175.855469 147.671875 C 176.992188 147.480469 190.53125 145.132812 205.96875 142.457031 L 251.542969 134.546875 L 252.066406 134.453125 L 252.152344 134.453125 L 253.238281 134.265625 C 253.234375 134.265625 256.898438 133.785156 256.898438 138.875 Z M 178.789062 166.980469 C 178.984375 180.78125 179.394531 206.859375 179.394531 211.683594 C 179.394531 215.097656 180.175781 216.359375 180.832031 216.828125 C 181.183594 217.082031 181.640625 217.164062 182.058594 217.042969 L 186.148438 216.089844 L 186.699219 215.964844 L 186.789062 215.941406 C 200.859375 212.671875 241.46875 203.214844 242.96875 202.613281 C 244.683594 201.925781 245.058594 199.464844 245.058594 199.4375 C 245.0625 198.976562 245.796875 150.554688 245.796875 146.535156 C 245.796875 145.164062 245.460938 144.1875 244.796875 143.605469 L 244.753906 143.570312 C 244.285156 143.175781 243.675781 142.984375 243.070312 143.035156 L 215.34375 147.816406 L 196.421875 151.074219 C 187.871094 152.542969 181.378906 153.660156 180.683594 153.777344 C 180.203125 153.878906 179.789062 154.179688 179.542969 154.609375 C 178.679688 155.914062 178.660156 158.304688 178.660156 158.371094 C 178.652344 158.546875 178.707031 161.949219 178.789062 166.980469 Z M 249.289062 146.320312 C 249.289062 142.015625 246.222656 142.453125 246.222656 142.453125 L 245.640625 142.550781 L 245.558594 142.550781 L 245.03125 142.644531 L 244.214844 142.78125 L 244.304688 142.8125 C 244.480469 142.816406 244.660156 142.835938 244.832031 142.875 C 244.960938 142.898438 245.082031 142.933594 245.199219 142.980469 L 245.257812 143 C 245.527344 143.101562 245.8125 143.265625 246.070312 143.507812 C 246.574219 143.980469 246.992188 144.769531 247.074219 146.082031 C 247.085938 146.242188 247.089844 146.402344 247.089844 146.578125 C 247.089844 150.703125 246.335938 200.238281 246.335938 200.238281 C 246.335938 200.238281 245.960938 202.867188 244.085938 203.617188 C 242.476562 204.261719 198.207031 214.539062 185.527344 217.476562 L 185.4375 217.476562 L 184.886719 217.601562 L 182.160156 218.234375 C 182.160156 218.234375 180.628906 218.820312 179.753906 216.675781 C 179.597656 216.289062 179.457031 215.808594 179.355469 215.222656 C 179.351562 215.210938 179.351562 215.199219 179.347656 215.191406 C 179.285156 214.972656 179.230469 214.742188 179.175781 214.496094 L 179.175781 215.203125 C 179.175781 221.085938 181.339844 221.234375 182.042969 221.128906 C 182.117188 221.117188 182.191406 221.097656 182.265625 221.078125 L 182.597656 220.996094 L 182.6875 220.976562 C 188.09375 219.707031 244.34375 206.558594 246.191406 205.804688 C 248.125 205.019531 248.511719 202.28125 248.511719 202.28125 C 248.511719 202.28125 249.289062 150.625 249.289062 146.320312 Z M 203.707031 230.542969 L 202.6875 230.777344 L 174.539062 237.570312 L 174.539062 231.390625 L 203.996094 224.734375 L 203.996094 230.476562 Z M 184.769531 230.414062 L 184.871094 229.835938 L 176.175781 232.054688 L 176.175781 235.902344 L 184.867188 233.976562 L 184.820312 232.292969 L 184.820312 232.136719 Z M 194.390625 228.082031 L 194.488281 227.511719 L 185.792969 229.722656 L 185.792969 233.578125 L 194.480469 231.652344 L 194.480469 231.3125 Z M 262.292969 126.722656 L 261.066406 215.714844 L 261.066406 215.75 C 261.015625 215.867188 259.773438 218.714844 257.261719 219.558594 C 256.445312 219.820312 247.121094 222.167969 234.757812 225.242188 L 233.941406 228.761719 L 233.820312 228.792969 L 223.414062 231.296875 C 228.015625 232.792969 233.789062 234.90625 236.140625 236.789062 C 240.304688 240.132812 238.394531 244.78125 238.371094 244.824219 L 238.332031 244.917969 L 238.234375 244.941406 L 180.765625 259.296875 L 180.703125 259.273438 L 139.898438 243.113281 L 140.140625 242.890625 C 140.144531 242.886719 140.515625 242.535156 140.800781 241.304688 C 141.117188 239.957031 143.316406 237.707031 143.410156 237.613281 L 143.464844 237.578125 L 147.886719 235.324219 L 148.039062 235.371094 L 148.097656 235.371094 L 148.125 235.429688 L 148.210938 235.605469 L 143.925781 237.785156 L 143.675781 237.914062 C 143.441406 238.15625 141.472656 240.21875 141.195312 241.394531 C 141.089844 241.945312 140.886719 242.472656 140.601562 242.949219 L 180.246094 258.628906 L 180.773438 258.835938 L 238.011719 244.523438 C 238.917969 242.101562 238.296875 239.367188 236.4375 237.574219 C 236.253906 237.394531 236.0625 237.226562 235.863281 237.066406 C 233.480469 235.152344 227.285156 232.929688 222.613281 231.441406 L 212.527344 233.867188 L 214.203125 235.644531 L 180.042969 244.542969 L 177.648438 242.265625 L 174.277344 243.085938 L 174.203125 243.042969 C 173.277344 242.441406 172.484375 241.648438 171.886719 240.71875 L 168.019531 241.671875 C 167.902344 241.691406 167.777344 241.703125 167.65625 241.699219 C 167.058594 241.691406 166.46875 241.523438 165.960938 241.214844 L 165.886719 241.171875 L 148.265625 235.410156 L 148.0625 235.339844 L 147.910156 235.292969 L 144.679688 234.226562 L 144.472656 234.160156 L 144.472656 223.613281 L 133.101562 220.957031 L 119.109375 200.238281 L 119.109375 183.75 L 112.558594 181.855469 L 112.558594 130.449219 C 112.558594 130.347656 112.796875 128.398438 116.15625 127.121094 C 119.410156 125.886719 179.898438 116.457031 182.472656 116.046875 L 182.546875 116.046875 L 209.683594 123.210938 L 240.414062 118.574219 L 240.449219 118.574219 L 260.652344 123.839844 L 260.585938 123.917969 C 261.042969 124.078125 261.453125 124.351562 261.78125 124.710938 C 262.253906 125.265625 262.445312 126.007812 262.292969 126.722656 Z M 261.472656 124.980469 C 261.152344 124.636719 260.75 124.382812 260.300781 124.246094 L 260.242188 124.246094 L 260.191406 124.203125 L 259.917969 124.128906 C 259.566406 124.042969 259.207031 123.996094 258.84375 123.988281 L 219.160156 130.589844 L 165.191406 139.570312 C 164.863281 139.636719 164.574219 139.824219 164.375 140.09375 C 163.472656 141.242188 163.714844 143.808594 163.714844 143.839844 L 163.714844 233.699219 C 163.714844 233.78125 163.714844 233.859375 163.714844 233.941406 L 163.714844 234.101562 C 163.761719 237.25 164.46875 239.476562 165.761719 240.570312 C 165.867188 240.65625 165.972656 240.734375 166.082031 240.808594 C 166.238281 240.90625 166.398438 240.992188 166.566406 241.0625 L 166.628906 241.082031 C 167.050781 241.261719 167.507812 241.328125 167.960938 241.28125 L 171.703125 240.363281 L 171.914062 240.3125 L 172.121094 240.265625 C 179.9375 238.359375 197.597656 234 214.777344 229.746094 L 215.765625 229.503906 C 222.257812 227.898438 228.65625 226.3125 234.417969 224.878906 L 234.640625 224.828125 L 234.863281 224.769531 C 247.113281 221.726562 256.351562 219.410156 257.117188 219.152344 C 259.3125 218.421875 260.511719 215.9375 260.660156 215.609375 L 261.886719 126.660156 C 262.003906 126.0625 261.851562 125.449219 261.472656 124.980469 Z M 222.664062 231.046875 L 233.605469 228.414062 L 234.273438 225.316406 C 229.074219 226.605469 223.347656 228.03125 217.5 229.476562 L 217.449219 229.476562 L 217.058594 229.574219 L 216.917969 229.605469 C 199.226562 233.988281 180.605469 238.558594 172.328125 240.609375 C 172.875 241.414062 173.570312 242.113281 174.375 242.660156 L 221.882812 231.21875 L 222.238281 231.132812 L 222.605469 231.042969 Z M 119.515625 200.117188 L 133.34375 220.589844 L 139.019531 221.914062 L 144.472656 223.191406 L 144.472656 191.097656 L 119.519531 183.878906 L 119.519531 200.117188 Z M 112.96875 181.550781 L 119.109375 183.324219 L 119.3125 183.382812 L 119.519531 183.449219 L 140.753906 189.613281 L 144.472656 190.691406 L 144.472656 136.550781 L 144.496094 136.511719 C 144.75 136.03125 145.003906 135.613281 145.253906 135.234375 C 146.632812 133.167969 147.800781 132.566406 147.859375 132.539062 L 147.925781 132.515625 L 195.941406 125.269531 L 208.671875 123.351562 L 182.484375 116.457031 C 181.046875 116.691406 147.0625 122.007812 128.316406 125.234375 C 121.796875 126.351562 117.113281 127.222656 116.296875 127.53125 C 115.9375 127.660156 115.585938 127.816406 115.242188 127.988281 C 113.679688 128.824219 113.183594 129.777344 113.035156 130.21875 C 113 130.300781 112.980469 130.386719 112.964844 130.46875 L 112.964844 181.550781 Z M 165.089844 240.476562 C 163.957031 239.21875 163.355469 237.085938 163.296875 234.128906 L 163.296875 233.96875 C 163.296875 233.875 163.296875 233.785156 163.296875 233.691406 L 163.296875 143.859375 C 163.285156 143.742188 163.0625 141.3125 163.949219 139.980469 C 164.203125 139.5625 164.621094 139.265625 165.097656 139.164062 L 219.699219 130.082031 L 258.292969 123.65625 L 258.355469 123.65625 L 240.390625 118.988281 L 210.6875 123.476562 L 210.335938 123.527344 L 209.714844 123.621094 L 209.667969 123.621094 L 196.777344 125.566406 L 148.015625 132.902344 L 147.949219 132.9375 C 147.101562 133.519531 146.378906 134.257812 145.816406 135.113281 C 145.773438 135.1875 145.722656 135.25 145.675781 135.320312 C 145.386719 135.757812 145.125 136.210938 144.882812 136.671875 L 144.882812 233.867188 L 148.949219 235.195312 L 149.332031 235.324219 Z M 245.09375 143.339844 C 245.847656 144.003906 246.226562 145.089844 246.226562 146.574219 C 246.226562 150.601562 245.484375 199.019531 245.484375 199.503906 C 245.46875 199.644531 245.074219 202.25 243.140625 203.023438 C 241.574219 203.65625 200.027344 213.328125 186.398438 216.492188 L 186.308594 216.492188 L 185.753906 216.621094 L 182.191406 217.4375 C 182.027344 217.492188 181.855469 217.515625 181.683594 217.515625 C 181.296875 217.515625 180.921875 217.394531 180.605469 217.175781 C 179.988281 216.683594 179.554688 216 179.378906 215.234375 C 179.316406 215.015625 179.261719 214.785156 179.210938 214.542969 C 179.035156 213.597656 178.957031 212.632812 178.972656 211.671875 C 178.972656 206.894531 178.582031 181.222656 178.375 167.320312 C 178.289062 162.0625 178.234375 158.5 178.234375 158.371094 C 178.234375 158.183594 178.261719 153.769531 180.621094 153.363281 L 196.984375 150.546875 L 243.007812 142.625 C 243.425781 142.589844 243.84375 142.648438 244.234375 142.792969 L 244.324219 142.824219 C 244.464844 142.882812 244.605469 142.957031 244.734375 143.035156 C 244.832031 143.097656 244.929688 143.167969 245.023438 143.246094 L 245.066406 143.28125 Z M 242.964844 202.613281 C 244.679688 201.925781 245.054688 199.464844 245.054688 199.4375 C 245.058594 198.976562 245.792969 150.554688 245.792969 146.535156 C 245.792969 145.175781 245.457031 144.1875 244.796875 143.605469 L 244.753906 143.570312 C 244.285156 143.175781 243.675781 142.984375 243.070312 143.035156 L 215.34375 147.816406 L 196.421875 151.074219 C 187.871094 152.542969 181.378906 153.660156 180.683594 153.777344 C 180.207031 153.878906 179.789062 154.175781 179.542969 154.601562 C 178.679688 155.90625 178.660156 158.296875 178.660156 158.363281 C 178.664062 158.542969 178.71875 161.941406 178.796875 166.976562 C 178.992188 180.777344 179.402344 206.855469 179.402344 211.679688 C 179.402344 215.09375 180.183594 216.355469 180.839844 216.824219 C 181.191406 217.078125 181.648438 217.160156 182.066406 217.039062 L 186.15625 216.085938 L 186.707031 215.960938 L 186.796875 215.9375 C 200.855469 212.667969 241.464844 203.210938 242.964844 202.613281 Z M 174.785156 230.910156 L 204.414062 224.214844 L 204.414062 230.78125 L 204.257812 230.816406 L 174.140625 238.089844 L 174.140625 231.0625 L 174.6875 230.933594 Z M 203.996094 224.734375 L 174.539062 231.390625 L 174.539062 237.570312 L 202.6875 230.78125 L 203.707031 230.535156 L 203.996094 230.464844 Z M 203.996094 224.734375 " fill-opacity="1" fill-rule="nonzero"/></g></svg>